<svg width="16" height="15" viewBox="0 0 16 15" fill="none" xmlns="http://www.w3.org/2000/svg">
<path d="M7.10547 5.12433V0.493095C7.10547 0.220766 7.32623 0 7.59856 0C7.87089 0 8.09166 0.220766 8.09166 0.493095V5.12433C8.09166 5.39666 7.87089 5.61743 7.59856 5.61743C7.32623 5.61743 7.10547 5.39666 7.10547 5.12433Z" fill="black"/>
<path d="M13.027 4.62891C14.2283 4.62891 15.1912 5.60129 15.1912 6.79313V6.85014L15.1781 6.90639L13.8229 12.6494C13.7904 13.6473 13.0888 14.4654 12.1556 14.6826V14.7481H3.53262C2.35573 14.7481 1.4095 13.8149 1.37147 12.6563L0.0170041 6.90639L0.00390625 6.85014V6.79313C0.00390625 5.59185 0.976291 4.62891 2.16813 4.62891H13.027ZM2.16813 5.6151C1.53424 5.6151 1.01741 6.11382 0.992407 6.74536L2.34148 12.4707L2.35458 12.5269V12.5839C2.35458 13.2337 2.87861 13.7619 3.53262 13.7619H11.1694V13.755H11.6625C12.3123 13.755 12.8406 13.231 12.8406 12.577V12.52L12.8537 12.4637L14.202 6.74536C14.177 6.11767 13.6649 5.6151 13.027 5.6151H2.16813Z" fill="black"/>
</svg>
